<svg width="40.000000" height="31.000000" viewBox="0 0 40 31" fill="none" xmlns="http://www.w3.org/2000/svg" xmlns:xlink="http://www.w3.org/1999/xlink">
	<desc>
			Created with Pixso.
	</desc>
	<defs>
		<linearGradient id="paint_linear_2_553_0" x1="18.000002" y1="9.000000" x2="18.000002" y2="31.000000" gradientUnits="userSpaceOnUse">
			<stop stop-color="#9FC7FF"/>
			<stop offset="1.000000" stop-color="#9BC1F5"/>
		</linearGradient>
		<radialGradient id="paint_radial_2_554_0" cx="0.000000" cy="0.000000" r="1.000000" gradientUnits="userSpaceOnUse" gradientTransform="translate(13.9439 -29.6966) rotate(-90) scale(20.9574 6.69705)">
			<stop stop-color="#486DA8" stop-opacity="0.400000"/>
			<stop offset="1.000000" stop-color="#486DA8" stop-opacity="0.000000"/>
		</radialGradient>
	</defs>
	<g opacity="0.320000">
		<path d="M34 21C37.314 21 40 18.314 40 15C40 11.686 37.314 9 34 9L33.938 9C33.978 8.672 34 8.33801 34 8C34 3.58197 30.418 0 26 0C22.5 0 19.524 2.24799 18.44 5.37799C17.67 5.13202 16.852 5 16 5C11.582 5 8 8.58197 8 13C8 17.418 11.582 21 16 21C16.69 21 17.36 20.912 18 20.748L18 21L34 21Z" fill="#73A5E6" fill-opacity="1.000000" fill-rule="nonzero"/>
	</g>
	<path d="M8 31C3.58197 31 0 27.418 0 23C0 18.582 3.58197 15 8 15C8.83398 15 9.63599 15.128 10.392 15.364C11.518 11.68 14.946 9 19 9C23.97 9 28 13.03 28 18C28 18.47 27.964 18.93 27.894 19.38C28.55 19.134 29.258 19 30 19C33.314 19 36 21.686 36 25C36 28.314 33.314 31 30 31L8 31Z" fill="url(#paint_linear_2_553_0)" fill-opacity="1.000000" fill-rule="nonzero"/>
	<path d="M10 18C10 22.97 14.03 27 19 27C23.502 27 27.23 23.696 27.894 19.38C28.55 19.134 29.258 19 30 19C33.314 19 36 21.686 36 25C36 28.314 33.314 31 30 31L8 31C3.58197 31 0 27.418 0 23C0 18.582 3.58197 15 8 15C8.83398 15 9.63599 15.128 10.392 15.364C10.136 16.198 10 17.082 10 18Z" fill="url(#paint_radial_2_554_0)" fill-opacity="1.000000" fill-rule="nonzero"/>
</svg>
