<svg width="43.784973" height="45.788086" viewBox="0 0 43.785 45.7881" fill="none" xmlns="http://www.w3.org/2000/svg" xmlns:xlink="http://www.w3.org/1999/xlink">
	<desc>
			Created with Pixso.
	</desc>
	<defs>
		<linearGradient id="paint_linear_2_532_0" x1="36.000000" y1="7.782956" x2="24.783199" y2="18.855278" gradientUnits="userSpaceOnUse">
			<stop stop-color="#FFB301"/>
			<stop offset="1.000000" stop-color="#FFC533"/>
		</linearGradient>
		<linearGradient id="paint_linear_2_535_0" x1="17.999998" y1="11.782959" x2="17.999998" y2="33.782959" gradientUnits="userSpaceOnUse">
			<stop stop-color="#9FC7FF"/>
			<stop offset="1.000000" stop-color="#9BC1F5"/>
		</linearGradient>
		<radialGradient id="paint_radial_2_536_0" cx="0.000000" cy="0.000000" r="1.000000" gradientUnits="userSpaceOnUse" gradientTransform="translate(11.0679 -22.9136) rotate(-90) scale(20.9574 6.69705)">
			<stop stop-color="#486DA8" stop-opacity="0.400000"/>
			<stop offset="1.000000" stop-color="#486DA8" stop-opacity="0.000000"/>
		</radialGradient>
	</defs>
	<path d="M36 15.783C36 20.2012 32.4183 23.783 28 23.783C23.5817 23.783 20 20.2012 20 15.783C20 11.3647 23.5817 7.78296 28 7.78296C32.4183 7.78296 36 11.3647 36 15.783Z" fill="url(#paint_linear_2_532_0)" fill-opacity="1.000000" fill-rule="evenodd"/>
	<path d="M26.96 1.24292L27.48 4.19696C27.8281 6.16693 24.872 6.68695 24.5261 4.71692L24.006 1.76294C23.658 -0.207031 26.614 -0.727051 26.96 1.24292ZM37.546 4.76495L35.826 7.22296C34.678 8.86096 32.222 7.14093 33.368 5.50293L35.088 3.04492C36.236 1.40692 38.692 3.12695 37.546 4.76495ZM16.984 6.23694L19.442 7.95697C21.08 9.10492 19.36 11.561 17.722 10.4149L15.264 8.69495C13.626 7.54694 15.346 5.09094 16.984 6.23694ZM38.282 21.1489L40.7401 22.869C42.3781 24.017 40.658 26.473 39.02 25.327L36.562 23.6069C34.924 22.4589 36.644 20.0029 38.282 21.1489ZM42.5421 14.741L39.588 15.2609C37.618 15.6089 37.098 12.653 39.0681 12.3069L42.022 11.7869C43.9921 11.439 44.512 14.395 42.5421 14.741Z" fill="#FFB300" fill-opacity="1.000000" fill-rule="nonzero"/>
	<path d="M10.218 38.7089L8.11798 43.7069C7.79797 44.4709 8.15601 45.3509 8.91998 45.6709C9.68396 45.9909 10.564 45.6329 10.884 44.8689L12.984 39.8709C13.304 39.1069 12.946 38.2269 12.182 37.9069C11.418 37.5869 10.538 37.9449 10.218 38.7089ZM20.218 36.7089L18.118 41.7069C17.798 42.4709 18.156 43.3509 18.92 43.6709C19.684 43.9909 20.564 43.6329 20.884 42.8689L22.984 37.8709C23.304 37.1069 22.946 36.2269 22.182 35.9069C21.418 35.5869 20.538 35.9449 20.218 36.7089Z" fill="#66AFEB" fill-opacity="1.000000" fill-rule="nonzero"/>
	<path d="M8 33.783C3.58197 33.783 0 30.2009 0 25.783C0 21.3649 3.58197 17.783 8 17.783C8.83398 17.783 9.63599 17.9109 10.392 18.147C11.518 14.463 14.946 11.783 19 11.783C23.97 11.783 28 15.813 28 20.783C28 21.2529 27.964 21.713 27.894 22.163C28.55 21.9169 29.258 21.783 30 21.783C33.314 21.783 36 24.4689 36 27.783C36 31.097 33.314 33.783 30 33.783L8 33.783Z" fill="url(#paint_linear_2_535_0)" fill-opacity="1.000000" fill-rule="nonzero"/>
	<path d="M10 20.783C10 25.7529 14.03 29.783 19 29.783C23.502 29.783 27.23 26.4789 27.894 22.163C28.55 21.9169 29.258 21.783 30 21.783C33.314 21.783 36 24.4689 36 27.783C36 31.097 33.314 33.783 30 33.783L8 33.783C3.58197 33.783 0 30.201 0 25.783C0 21.3649 3.58197 17.783 8 17.783C8.83398 17.783 9.63599 17.9109 10.392 18.147C10.136 18.981 10 19.8649 10 20.783Z" fill="url(#paint_radial_2_536_0)" fill-opacity="1.000000" fill-rule="nonzero"/>
</svg>
