<svg width="36.000000" height="34.005127" viewBox="0 0 36 34.0051" fill="none" xmlns="http://www.w3.org/2000/svg" xmlns:xlink="http://www.w3.org/1999/xlink">
	<desc>
			Created with Pixso.
	</desc>
	<defs>
		<linearGradient id="paint_linear_2_528_0" x1="18.000002" y1="0.000000" x2="18.000002" y2="22.000000" gradientUnits="userSpaceOnUse">
			<stop stop-color="#9FC7FF"/>
			<stop offset="1.000000" stop-color="#9BC1F5"/>
		</linearGradient>
		<radialGradient id="paint_radial_2_529_0" cx="0.000000" cy="0.000000" r="1.000000" gradientUnits="userSpaceOnUse" gradientTransform="translate(4.75395 -30.6966) rotate(-90) scale(20.9574 6.69705)">
			<stop stop-color="#486DA8" stop-opacity="0.400000"/>
			<stop offset="1.000000" stop-color="#486DA8" stop-opacity="0.000000"/>
		</radialGradient>
	</defs>
	<path d="M8.21796 26.926L6.11798 31.924C5.79797 32.688 6.15601 33.568 6.91998 33.8879C7.68396 34.2079 8.56396 33.85 8.88397 33.0859L10.984 28.088C11.304 27.324 10.946 26.444 10.182 26.124C9.41797 25.804 8.53796 26.162 8.21796 26.926ZM24.218 26.926L22.118 31.924C21.798 32.688 22.156 33.568 22.92 33.8879C23.684 34.2079 24.564 33.85 24.884 33.0859L26.984 28.088C27.304 27.324 26.946 26.444 26.182 26.124C25.418 25.804 24.538 26.162 24.218 26.926ZM16.218 24.926L14.118 29.924C13.798 30.688 14.156 31.568 14.92 31.8879C15.684 32.2079 16.564 31.85 16.884 31.0859L18.984 26.088C19.304 25.324 18.946 24.444 18.182 24.124C17.418 23.804 16.538 24.162 16.218 24.926Z" fill="#66AFEB" fill-opacity="1.000000" fill-rule="nonzero"/>
	<path d="M8 22C3.58197 22 0 18.418 0 14C0 9.58197 3.58197 6 8 6C8.83398 6 9.63599 6.12799 10.392 6.36401C11.518 2.67999 14.946 0 19 0C23.97 0 28 4.03003 28 9C28 9.46997 27.964 9.92999 27.894 10.38C28.55 10.134 29.258 10 30 10C33.314 10 36 12.686 36 16C36 19.314 33.314 22 30 22L8 22Z" fill="url(#paint_linear_2_528_0)" fill-opacity="1.000000" fill-rule="nonzero"/>
	<path d="M10 9C10 13.97 14.03 18 19 18C23.502 18 27.23 14.696 27.894 10.38C28.55 10.134 29.258 10 30 10C33.314 10 36 12.686 36 16C36 19.314 33.314 22 30 22L8 22C3.58197 22 0 18.418 0 14C0 9.58197 3.58197 6 8 6C8.83398 6 9.63599 6.12799 10.392 6.36401C10.136 7.198 10 8.08197 10 9Z" fill="url(#paint_radial_2_529_0)" fill-opacity="1.000000" fill-rule="nonzero"/>
</svg>
