<svg width="36.000000" height="34.005127" viewBox="0 0 36 34.0051" fill="none" xmlns="http://www.w3.org/2000/svg" xmlns:xlink="http://www.w3.org/1999/xlink">
	<desc>
			Created with Pixso.
	</desc>
	<defs>
		<linearGradient id="paint_linear_2_540_0" x1="18.000002" y1="0.000000" x2="18.000002" y2="22.000000" gradientUnits="userSpaceOnUse">
			<stop stop-color="#9FC7FF"/>
			<stop offset="1.000000" stop-color="#9BC1F5"/>
		</linearGradient>
		<radialGradient id="paint_radial_2_541_0" cx="0.000000" cy="0.000000" r="1.000000" gradientUnits="userSpaceOnUse" gradientTransform="translate(4.75395 -30.6966) rotate(-90) scale(20.9574 6.69705)">
			<stop stop-color="#486DA8" stop-opacity="0.400000"/>
			<stop offset="1.000000" stop-color="#486DA8" stop-opacity="0.000000"/>
		</radialGradient>
	</defs>
	<path d="M10.218 26.926L8.11798 31.924C7.79797 32.688 8.15601 33.5681 8.91998 33.888C9.68396 34.208 10.564 33.85 10.884 33.086L12.984 28.088C13.304 27.324 12.946 26.444 12.182 26.124C11.418 25.804 10.538 26.162 10.218 26.926ZM20.218 24.926L18.118 29.924C17.798 30.688 18.156 31.5681 18.92 31.888C19.684 32.208 20.564 31.85 20.884 31.086L22.984 26.088C23.304 25.324 22.946 24.444 22.182 24.124C21.418 23.804 20.538 24.162 20.218 24.926Z" fill="#66AFEB" fill-opacity="1.000000" fill-rule="nonzero"/>
	<path d="M8 22C3.58197 22 0 18.418 0 14C0 9.58197 3.58197 6 8 6C8.83398 6 9.63599 6.12799 10.392 6.36401C11.518 2.67999 14.946 0 19 0C23.97 0 28 4.03003 28 9C28 9.46997 27.964 9.92999 27.894 10.38C28.55 10.134 29.258 10 30 10C33.314 10 36 12.686 36 16C36 19.314 33.314 22 30 22L8 22Z" fill="url(#paint_linear_2_540_0)" fill-opacity="1.000000" fill-rule="nonzero"/>
	<path d="M10 9C10 13.97 14.03 18 19 18C23.502 18 27.23 14.696 27.894 10.38C28.55 10.134 29.258 10 30 10C33.314 10 36 12.686 36 16C36 19.314 33.314 22 30 22L8 22C3.58197 22 0 18.418 0 14C0 9.58197 3.58197 6 8 6C8.83398 6 9.63599 6.12799 10.392 6.36401C10.136 7.198 10 8.08197 10 9Z" fill="url(#paint_radial_2_541_0)" fill-opacity="1.000000" fill-rule="nonzero"/>
</svg>
