<svg width="48.000000" height="48.000000" viewBox="0 0 48 48" fill="none" xmlns="http://www.w3.org/2000/svg" xmlns:xlink="http://www.w3.org/1999/xlink">
	<desc>
			Created with Pixso.
	</desc>
	<defs>
		<linearGradient id="paint_linear_2_548_0" x1="24.009182" y1="12.510010" x2="24.009182" y2="35.195160" gradientUnits="userSpaceOnUse">
			<stop stop-color="#FFC227"/>
			<stop offset="1.000000" stop-color="#FFB300"/>
		</linearGradient>
	</defs>
	<path d="M35.5056 24.0058C35.5056 30.3548 30.3585 35.5016 24.0092 35.5016C17.6599 35.5016 12.5128 30.3548 12.5128 24.0058C12.5128 17.6569 17.6599 12.51 24.0092 12.51C30.3585 12.51 35.5056 17.6569 35.5056 24.0058Z" fill="url(#paint_linear_2_548_0)" fill-opacity="1.000000" fill-rule="evenodd"/>
	<path d="M34.8135 2.40051L32.1118 8.92322C31.2312 11.0477 28.0444 9.72797 28.925 7.60352L31.6267 1.08081C32.5073 -1.04364 35.6941 0.276062 34.8135 2.40051ZM19.0726 40.3988L16.371 46.9215C15.4904 49.046 12.3036 47.7262 13.1842 45.6018L15.8859 39.079C16.7665 36.9547 19.9533 38.2744 19.0726 40.3988ZM46.9214 16.3748L40.3984 19.0764C38.2739 19.9569 36.9541 16.7703 39.0786 15.8897L45.6017 13.1882C47.7262 12.3076 49.046 15.4943 46.9214 16.3748ZM8.92139 32.1149L2.39832 34.8164C0.273804 35.697 -1.04596 32.5104 1.07855 31.6298L7.60156 28.9283C9.72614 28.0477 11.0459 31.2343 8.92139 32.1149ZM45.6017 34.8187L39.0786 32.1172C36.9541 31.2366 38.2739 28.05 40.3984 28.9305L46.9214 31.6321C49.046 32.5126 47.7262 35.6993 45.6017 34.8187ZM7.60156 19.0786L1.07855 16.3771C-1.04596 15.4965 0.273804 12.3099 2.39832 13.1905L8.92139 15.892C11.0459 16.7726 9.72614 19.9592 7.60156 19.0786ZM16.3687 1.07849L19.0704 7.6012C19.951 9.72565 16.7642 11.0453 15.8835 8.92096L13.1819 2.39819C12.3013 0.273804 15.4881 -1.04596 16.3687 1.07849ZM32.1096 39.0768L34.8112 45.5995C35.6918 47.7239 32.505 49.0436 31.6244 46.9192L28.9227 40.3965C28.0421 38.272 31.2289 36.9523 32.1096 39.0768Z" fill="#FFB300" fill-opacity="1.000000" fill-rule="nonzero"/>
</svg>
