<svg width="20.000000" height="16.521729" viewBox="0 0 20 16.5217" fill="none" xmlns="http://www.w3.org/2000/svg" xmlns:xlink="http://www.w3.org/1999/xlink">
	<desc>
			Created with Pixso.
	</desc>
	<defs/>
	<path d="M16.087 0.869568C13.9291 0.869568 12.1739 2.62521 12.1739 4.78262C12.1739 5.02261 12.3683 5.21741 12.6087 5.21741C12.8491 5.21741 13.0435 5.02261 13.0435 4.78262C13.0435 3.10434 14.4091 1.73914 16.087 1.73914C17.7648 1.73914 19.1304 3.10434 19.1304 4.78262C19.1304 6.46088 17.7648 7.82608 16.087 7.82608L0.434784 7.82608C0.194786 7.82608 0 8.02087 0 8.26086C0 8.50089 0.194786 8.69565 0.434784 8.69565L16.087 8.69565C18.2448 8.69565 20 6.94 20 4.78262C20 2.62521 18.2448 0.869568 16.087 0.869568Z" fill="#007AFF" fill-opacity="1.000000" fill-rule="nonzero"/>
	<path d="M0.434784 6.08694L7.82609 6.08694C9.50435 6.08694 10.8696 4.72174 10.8696 3.04349C10.8696 1.3652 9.50435 0 7.82609 0C6.14783 0 4.78261 1.3652 4.78261 3.04349C4.78261 3.28348 4.97739 3.47827 5.21739 3.47827C5.45739 3.47827 5.65218 3.28348 5.65218 3.04349C5.65218 1.84479 6.62739 0.869568 7.82609 0.869568C9.02478 0.869568 10 1.84479 10 3.04349C10 4.24219 9.02478 5.21738 7.82609 5.21738L0.434784 5.21738C0.194786 5.21738 0 5.41217 0 5.65216C0 5.89218 0.194786 6.08694 0.434784 6.08694Z" fill="#007AFF" fill-opacity="1.000000" fill-rule="nonzero"/>
	<path d="M15.2174 15.6522C14.0187 15.6522 13.0435 14.6769 13.0435 13.4783C13.0435 13.2383 12.8491 13.0435 12.6087 13.0435C12.3683 13.0435 12.1739 13.2383 12.1739 13.4783C12.1739 15.1565 13.5396 16.5217 15.2174 16.5217C16.8952 16.5217 18.2609 15.1565 18.2609 13.4783C18.2609 11.8 16.8952 10.4348 15.2174 10.4348L0.434784 10.4348C0.194786 10.4348 0 10.6296 0 10.8696C0 11.1096 0.194786 11.3044 0.434784 11.3044L15.2174 11.3044C16.4161 11.3044 17.3913 12.2796 17.3913 13.4783C17.3913 14.6769 16.4161 15.6522 15.2174 15.6522Z" fill="#007AFF" fill-opacity="1.000000" fill-rule="nonzero"/>
</svg>
